<mxfile host="app.diagrams.net" modified="2023-12-19T15:27:24.699Z" agent="Mozilla/5.0 (Windows NT 10.0; Win64; x64; rv:120.0) Gecko/20100101 Firefox/120.0" etag="wgXPTh_LpFw86W6S_TK_" version="22.1.11" type="device">
  <diagram id="whsIAXvvB3Vlr7miQYWP" name="Page-1">
    <mxGraphModel dx="1949" dy="586" grid="1" gridSize="10" guides="1" tooltips="1" connect="1" arrows="1" fold="1" page="1" pageScale="1" pageWidth="827" pageHeight="1169" math="0" shadow="0">
      <root>
        <mxCell id="0" />
        <mxCell id="1" parent="0" />
        <mxCell id="pHOT10jgORBA76ojkJSI-1" value="Fake-Generator" style="rounded=0;whiteSpace=wrap;html=1;fillColor=#33FF33;" parent="1" vertex="1">
          <mxGeometry x="55" y="130" width="80" height="30" as="geometry" />
        </mxCell>
        <mxCell id="pHOT10jgORBA76ojkJSI-2" value="Generator" style="text;html=1;align=center;verticalAlign=middle;resizable=0;points=[];autosize=1;strokeColor=none;fillColor=none;" parent="1" vertex="1">
          <mxGeometry x="120" y="60" width="70" height="20" as="geometry" />
        </mxCell>
        <mxCell id="pHOT10jgORBA76ojkJSI-3" value="Processor" style="text;html=1;align=center;verticalAlign=middle;resizable=0;points=[];autosize=1;strokeColor=none;fillColor=none;" parent="1" vertex="1">
          <mxGeometry x="320" y="60" width="70" height="20" as="geometry" />
        </mxCell>
        <mxCell id="pHOT10jgORBA76ojkJSI-4" value="Evaluator" style="text;html=1;align=center;verticalAlign=middle;resizable=0;points=[];autosize=1;strokeColor=none;fillColor=none;" parent="1" vertex="1">
          <mxGeometry x="530" y="60" width="70" height="20" as="geometry" />
        </mxCell>
        <mxCell id="pHOT10jgORBA76ojkJSI-5" value="GPT2" style="rounded=0;whiteSpace=wrap;html=1;fillColor=#33FF33;" parent="1" vertex="1">
          <mxGeometry x="55" y="180" width="80" height="30" as="geometry" />
        </mxCell>
        <mxCell id="pHOT10jgORBA76ojkJSI-6" value="" style="endArrow=none;html=1;rounded=0;" parent="1" edge="1">
          <mxGeometry width="50" height="50" relative="1" as="geometry">
            <mxPoint y="360" as="sourcePoint" />
            <mxPoint x="660" y="360" as="targetPoint" />
          </mxGeometry>
        </mxCell>
        <mxCell id="pHOT10jgORBA76ojkJSI-7" value="" style="endArrow=none;html=1;rounded=0;" parent="1" edge="1">
          <mxGeometry width="50" height="50" relative="1" as="geometry">
            <mxPoint x="260" y="510" as="sourcePoint" />
            <mxPoint x="260" y="50" as="targetPoint" />
          </mxGeometry>
        </mxCell>
        <mxCell id="pHOT10jgORBA76ojkJSI-8" value="" style="endArrow=none;html=1;rounded=0;" parent="1" edge="1">
          <mxGeometry width="50" height="50" relative="1" as="geometry">
            <mxPoint x="460" y="510" as="sourcePoint" />
            <mxPoint x="460" y="50" as="targetPoint" />
          </mxGeometry>
        </mxCell>
        <mxCell id="pHOT10jgORBA76ojkJSI-9" value="falcon" style="rounded=0;whiteSpace=wrap;html=1;fillColor=#FFFF33;" parent="1" vertex="1">
          <mxGeometry x="55" y="230" width="80" height="30" as="geometry" />
        </mxCell>
        <mxCell id="pHOT10jgORBA76ojkJSI-11" value="&quot; &quot; -&amp;gt; &quot;&amp;nbsp; &quot;" style="rounded=0;whiteSpace=wrap;html=1;fillColor=#33FF33;" parent="1" vertex="1">
          <mxGeometry x="265" y="130" width="80" height="30" as="geometry" />
        </mxCell>
        <mxCell id="pHOT10jgORBA76ojkJSI-12" value="2x translation" style="rounded=0;whiteSpace=wrap;html=1;fillColor=#33FF33;" parent="1" vertex="1">
          <mxGeometry x="265" y="180" width="80" height="30" as="geometry" />
        </mxCell>
        <mxCell id="pHOT10jgORBA76ojkJSI-13" value="typo" style="rounded=0;whiteSpace=wrap;html=1;fillColor=#33FF33;" parent="1" vertex="1">
          <mxGeometry x="265" y="230" width="80" height="30" as="geometry" />
        </mxCell>
        <mxCell id="pHOT10jgORBA76ojkJSI-14" value="roberta" style="rounded=0;whiteSpace=wrap;html=1;fillColor=#33FF33;" parent="1" vertex="1">
          <mxGeometry x="465" y="130" width="80" height="30" as="geometry" />
        </mxCell>
        <mxCell id="pHOT10jgORBA76ojkJSI-15" value="nlptown *1" style="rounded=0;whiteSpace=wrap;html=1;" parent="1" vertex="1">
          <mxGeometry x="465" y="180" width="80" height="30" as="geometry" />
        </mxCell>
        <mxCell id="pHOT10jgORBA76ojkJSI-16" value="prya *3" style="rounded=0;whiteSpace=wrap;html=1;" parent="1" vertex="1">
          <mxGeometry x="465" y="230" width="80" height="30" as="geometry" />
        </mxCell>
        <mxCell id="pHOT10jgORBA76ojkJSI-18" value="Stable Diffusion" style="rounded=0;whiteSpace=wrap;html=1;fillColor=#33FF33;" parent="1" vertex="1">
          <mxGeometry x="55" y="420" width="80" height="30" as="geometry" />
        </mxCell>
        <mxCell id="pHOT10jgORBA76ojkJSI-19" value="dall-e" style="rounded=0;whiteSpace=wrap;html=1;fillColor=#FFFF33;" parent="1" vertex="1">
          <mxGeometry x="55" y="470" width="80" height="30" as="geometry" />
        </mxCell>
        <mxCell id="pHOT10jgORBA76ojkJSI-20" value="sk-img: s&amp;amp;p" style="rounded=0;whiteSpace=wrap;html=1;fillColor=#33FF33;" parent="1" vertex="1">
          <mxGeometry x="265" y="420" width="80" height="30" as="geometry" />
        </mxCell>
        <mxCell id="pHOT10jgORBA76ojkJSI-22" value="sk-img:poisson " style="rounded=0;whiteSpace=wrap;html=1;fillColor=#33FF33;" parent="1" vertex="1">
          <mxGeometry x="265" y="470" width="80" height="30" as="geometry" />
        </mxCell>
        <mxCell id="pHOT10jgORBA76ojkJSI-23" value="Umm-Maybe Evaluator" style="rounded=0;whiteSpace=wrap;html=1;verticalAlign=middle;fillColor=#33FF33;" parent="1" vertex="1">
          <mxGeometry x="465" y="370" width="80" height="30" as="geometry" />
        </mxCell>
        <mxCell id="pHOT10jgORBA76ojkJSI-24" value="" style="rounded=0;whiteSpace=wrap;html=1;" parent="1" vertex="1">
          <mxGeometry x="465" y="420" width="80" height="30" as="geometry" />
        </mxCell>
        <mxCell id="pHOT10jgORBA76ojkJSI-25" value="" style="rounded=0;whiteSpace=wrap;html=1;" parent="1" vertex="1">
          <mxGeometry x="465" y="470" width="80" height="30" as="geometry" />
        </mxCell>
        <mxCell id="pHOT10jgORBA76ojkJSI-26" value="" style="endArrow=none;html=1;rounded=0;" parent="1" edge="1">
          <mxGeometry width="50" height="50" relative="1" as="geometry">
            <mxPoint y="110" as="sourcePoint" />
            <mxPoint x="660" y="110" as="targetPoint" />
          </mxGeometry>
        </mxCell>
        <mxCell id="pHOT10jgORBA76ojkJSI-27" value="" style="endArrow=none;html=1;rounded=0;" parent="1" edge="1">
          <mxGeometry width="50" height="50" relative="1" as="geometry">
            <mxPoint x="150" y="510" as="sourcePoint" />
            <mxPoint x="150" y="90" as="targetPoint" />
          </mxGeometry>
        </mxCell>
        <mxCell id="pHOT10jgORBA76ojkJSI-28" value="" style="endArrow=none;html=1;rounded=0;" parent="1" edge="1">
          <mxGeometry width="50" height="50" relative="1" as="geometry">
            <mxPoint x="350" y="510" as="sourcePoint" />
            <mxPoint x="350" y="90" as="targetPoint" />
          </mxGeometry>
        </mxCell>
        <mxCell id="pHOT10jgORBA76ojkJSI-29" value="" style="endArrow=none;html=1;rounded=0;" parent="1" edge="1">
          <mxGeometry width="50" height="50" relative="1" as="geometry">
            <mxPoint x="560" y="510" as="sourcePoint" />
            <mxPoint x="560" y="90" as="targetPoint" />
          </mxGeometry>
        </mxCell>
        <mxCell id="pHOT10jgORBA76ojkJSI-32" value="" style="endArrow=none;html=1;rounded=0;" parent="1" edge="1">
          <mxGeometry width="50" height="50" relative="1" as="geometry">
            <mxPoint x="660" y="510" as="sourcePoint" />
            <mxPoint x="660" y="50" as="targetPoint" />
          </mxGeometry>
        </mxCell>
        <mxCell id="pHOT10jgORBA76ojkJSI-35" value="&lt;div&gt;implementation&lt;/div&gt;" style="text;html=1;align=center;verticalAlign=middle;resizable=0;points=[];autosize=1;strokeColor=none;fillColor=none;" parent="1" vertex="1">
          <mxGeometry x="45" y="90" width="100" height="20" as="geometry" />
        </mxCell>
        <mxCell id="pHOT10jgORBA76ojkJSI-36" value="&lt;div&gt;implementation&lt;/div&gt;" style="text;html=1;align=center;verticalAlign=middle;resizable=0;points=[];autosize=1;strokeColor=none;fillColor=none;" parent="1" vertex="1">
          <mxGeometry x="255" y="90" width="100" height="20" as="geometry" />
        </mxCell>
        <mxCell id="pHOT10jgORBA76ojkJSI-37" value="&lt;div&gt;implementation&lt;/div&gt;" style="text;html=1;align=center;verticalAlign=middle;resizable=0;points=[];autosize=1;strokeColor=none;fillColor=none;" parent="1" vertex="1">
          <mxGeometry x="455" y="90" width="100" height="20" as="geometry" />
        </mxCell>
        <mxCell id="pHOT10jgORBA76ojkJSI-40" value="&lt;div&gt;paper&lt;/div&gt;" style="text;html=1;align=center;verticalAlign=middle;resizable=0;points=[];autosize=1;strokeColor=none;fillColor=none;" parent="1" vertex="1">
          <mxGeometry x="180" y="90" width="50" height="20" as="geometry" />
        </mxCell>
        <mxCell id="pHOT10jgORBA76ojkJSI-41" value="&lt;div&gt;paper&lt;/div&gt;" style="text;html=1;align=center;verticalAlign=middle;resizable=0;points=[];autosize=1;strokeColor=none;fillColor=none;" parent="1" vertex="1">
          <mxGeometry x="380" y="90" width="50" height="20" as="geometry" />
        </mxCell>
        <mxCell id="pHOT10jgORBA76ojkJSI-42" value="&lt;div&gt;paper&lt;/div&gt;" style="text;html=1;align=center;verticalAlign=middle;resizable=0;points=[];autosize=1;strokeColor=none;fillColor=none;" parent="1" vertex="1">
          <mxGeometry x="580" y="90" width="50" height="20" as="geometry" />
        </mxCell>
        <mxCell id="pHOT10jgORBA76ojkJSI-43" value="Fake-Generator" style="rounded=0;whiteSpace=wrap;html=1;fillColor=#FF33FF;" parent="1" vertex="1">
          <mxGeometry x="165" y="130" width="80" height="30" as="geometry" />
        </mxCell>
        <mxCell id="pHOT10jgORBA76ojkJSI-48" value="" style="rounded=0;whiteSpace=wrap;html=1;" parent="1" vertex="1">
          <mxGeometry x="165" y="180" width="80" height="30" as="geometry" />
        </mxCell>
        <mxCell id="pHOT10jgORBA76ojkJSI-49" value="" style="rounded=0;whiteSpace=wrap;html=1;" parent="1" vertex="1">
          <mxGeometry x="165" y="230" width="80" height="30" as="geometry" />
        </mxCell>
        <mxCell id="pHOT10jgORBA76ojkJSI-51" value="&quot; &quot; -&amp;gt; &quot;&amp;nbsp; &quot;" style="rounded=0;whiteSpace=wrap;html=1;fillColor=#FFFFFF;" parent="1" vertex="1">
          <mxGeometry x="365" y="130" width="80" height="30" as="geometry" />
        </mxCell>
        <mxCell id="pHOT10jgORBA76ojkJSI-52" value="" style="rounded=0;whiteSpace=wrap;html=1;" parent="1" vertex="1">
          <mxGeometry x="365" y="180" width="80" height="30" as="geometry" />
        </mxCell>
        <mxCell id="pHOT10jgORBA76ojkJSI-53" value="" style="rounded=0;whiteSpace=wrap;html=1;" parent="1" vertex="1">
          <mxGeometry x="365" y="230" width="80" height="30" as="geometry" />
        </mxCell>
        <mxCell id="pHOT10jgORBA76ojkJSI-54" value="roberta" style="rounded=0;whiteSpace=wrap;html=1;fillColor=#33FF33;" parent="1" vertex="1">
          <mxGeometry x="565" y="130" width="80" height="30" as="geometry" />
        </mxCell>
        <mxCell id="pHOT10jgORBA76ojkJSI-55" value="" style="rounded=0;whiteSpace=wrap;html=1;" parent="1" vertex="1">
          <mxGeometry x="565" y="180" width="80" height="30" as="geometry" />
        </mxCell>
        <mxCell id="pHOT10jgORBA76ojkJSI-56" value="" style="rounded=0;whiteSpace=wrap;html=1;" parent="1" vertex="1">
          <mxGeometry x="565" y="230" width="80" height="30" as="geometry" />
        </mxCell>
        <mxCell id="pHOT10jgORBA76ojkJSI-57" value="Fake-Generator" style="rounded=0;whiteSpace=wrap;html=1;fillColor=#FF33FF;" parent="1" vertex="1">
          <mxGeometry x="165" y="370" width="80" height="30" as="geometry" />
        </mxCell>
        <mxCell id="pHOT10jgORBA76ojkJSI-58" value="" style="rounded=0;whiteSpace=wrap;html=1;" parent="1" vertex="1">
          <mxGeometry x="165" y="420" width="80" height="30" as="geometry" />
        </mxCell>
        <mxCell id="pHOT10jgORBA76ojkJSI-59" value="" style="rounded=0;whiteSpace=wrap;html=1;" parent="1" vertex="1">
          <mxGeometry x="165" y="470" width="80" height="30" as="geometry" />
        </mxCell>
        <mxCell id="pHOT10jgORBA76ojkJSI-60" value="" style="rounded=0;whiteSpace=wrap;html=1;" parent="1" vertex="1">
          <mxGeometry x="365" y="370" width="80" height="30" as="geometry" />
        </mxCell>
        <mxCell id="pHOT10jgORBA76ojkJSI-61" value="" style="rounded=0;whiteSpace=wrap;html=1;" parent="1" vertex="1">
          <mxGeometry x="365" y="420" width="80" height="30" as="geometry" />
        </mxCell>
        <mxCell id="pHOT10jgORBA76ojkJSI-62" value="" style="rounded=0;whiteSpace=wrap;html=1;" parent="1" vertex="1">
          <mxGeometry x="365" y="520" width="80" height="30" as="geometry" />
        </mxCell>
        <mxCell id="pHOT10jgORBA76ojkJSI-63" value="" style="rounded=0;whiteSpace=wrap;html=1;" parent="1" vertex="1">
          <mxGeometry x="565" y="370" width="80" height="30" as="geometry" />
        </mxCell>
        <mxCell id="pHOT10jgORBA76ojkJSI-64" value="" style="rounded=0;whiteSpace=wrap;html=1;" parent="1" vertex="1">
          <mxGeometry x="565" y="420" width="80" height="30" as="geometry" />
        </mxCell>
        <mxCell id="pHOT10jgORBA76ojkJSI-65" value="" style="rounded=0;whiteSpace=wrap;html=1;" parent="1" vertex="1">
          <mxGeometry x="565" y="470" width="80" height="30" as="geometry" />
        </mxCell>
        <mxCell id="pHOT10jgORBA76ojkJSI-66" value="Fake-Generator" style="rounded=0;whiteSpace=wrap;html=1;fillColor=#33FF33;" parent="1" vertex="1">
          <mxGeometry x="55" y="370" width="80" height="30" as="geometry" />
        </mxCell>
        <mxCell id="pHOT10jgORBA76ojkJSI-67" value="Text" style="text;html=1;align=center;verticalAlign=middle;resizable=0;points=[];autosize=1;strokeColor=none;fillColor=none;" parent="1" vertex="1">
          <mxGeometry x="5" y="200" width="40" height="20" as="geometry" />
        </mxCell>
        <mxCell id="pHOT10jgORBA76ojkJSI-68" value="Image" style="text;html=1;align=center;verticalAlign=middle;resizable=0;points=[];autosize=1;strokeColor=none;fillColor=none;" parent="1" vertex="1">
          <mxGeometry x="-5" y="410" width="50" height="20" as="geometry" />
        </mxCell>
        <mxCell id="pHOT10jgORBA76ojkJSI-69" value="wip" style="whiteSpace=wrap;html=1;fillColor=#FFFF33;" parent="1" vertex="1">
          <mxGeometry x="710" y="60" width="60" height="30" as="geometry" />
        </mxCell>
        <mxCell id="pHOT10jgORBA76ojkJSI-70" value="done" style="rounded=0;whiteSpace=wrap;html=1;fillColor=#33FF33;" parent="1" vertex="1">
          <mxGeometry x="710" y="100" width="60" height="30" as="geometry" />
        </mxCell>
        <mxCell id="pHOT10jgORBA76ojkJSI-71" value="Gaussian noise" style="rounded=0;whiteSpace=wrap;html=1;fillColor=#33FF33;" parent="1" vertex="1">
          <mxGeometry x="265" y="370" width="80" height="30" as="geometry" />
        </mxCell>
        <mxCell id="9xpDufU42AzEc1XoIaA7-3" value="&lt;div&gt;not necessary&lt;/div&gt;" style="rounded=0;whiteSpace=wrap;html=1;fillColor=#FF33FF;" parent="1" vertex="1">
          <mxGeometry x="710" y="140" width="60" height="30" as="geometry" />
        </mxCell>
        <mxCell id="9xpDufU42AzEc1XoIaA7-4" value="" style="endArrow=none;html=1;rounded=0;" parent="1" edge="1">
          <mxGeometry width="50" height="50" relative="1" as="geometry">
            <mxPoint x="44.99999999999995" y="510" as="sourcePoint" />
            <mxPoint x="44.99999999999995" y="50" as="targetPoint" />
          </mxGeometry>
        </mxCell>
        <mxCell id="F3MV0ou2FzLWRQstEECt-3" value="phi-2" style="rounded=0;whiteSpace=wrap;html=1;fillColor=#FFFFFF;" vertex="1" parent="1">
          <mxGeometry x="55" y="320" width="80" height="30" as="geometry" />
        </mxCell>
        <mxCell id="F3MV0ou2FzLWRQstEECt-4" value="" style="rounded=0;whiteSpace=wrap;html=1;" vertex="1" parent="1">
          <mxGeometry x="165" y="280" width="80" height="30" as="geometry" />
        </mxCell>
        <mxCell id="F3MV0ou2FzLWRQstEECt-5" value="dataset" style="rounded=0;whiteSpace=wrap;html=1;" vertex="1" parent="1">
          <mxGeometry x="55" y="520" width="80" height="30" as="geometry" />
        </mxCell>
        <mxCell id="F3MV0ou2FzLWRQstEECt-6" value="" style="rounded=0;whiteSpace=wrap;html=1;" vertex="1" parent="1">
          <mxGeometry x="165" y="520" width="80" height="30" as="geometry" />
        </mxCell>
        <mxCell id="F3MV0ou2FzLWRQstEECt-9" value="dataset" style="rounded=0;whiteSpace=wrap;html=1;" vertex="1" parent="1">
          <mxGeometry x="55" y="280" width="80" height="30" as="geometry" />
        </mxCell>
        <mxCell id="F3MV0ou2FzLWRQstEECt-10" value="RNG objects" style="rounded=0;whiteSpace=wrap;html=1;" vertex="1" parent="1">
          <mxGeometry x="265" y="520" width="80" height="30" as="geometry" />
        </mxCell>
        <mxCell id="F3MV0ou2FzLWRQstEECt-11" value="" style="rounded=0;whiteSpace=wrap;html=1;" vertex="1" parent="1">
          <mxGeometry x="365" y="470" width="80" height="30" as="geometry" />
        </mxCell>
        <mxCell id="F3MV0ou2FzLWRQstEECt-12" value="&lt;div&gt;*1: https://github.com/Kishanjaisoorya/AI-Text-Detector-python/blob/main/AI%20Text%20Detection%20using%20python/AITextDetector.py&lt;br&gt;&lt;/div&gt;" style="text;html=1;align=center;verticalAlign=middle;resizable=0;points=[];autosize=1;strokeColor=none;fillColor=none;" vertex="1" parent="1">
          <mxGeometry x="-4" y="660" width="750" height="30" as="geometry" />
        </mxCell>
        <mxCell id="F3MV0ou2FzLWRQstEECt-13" value="iwatermark *2" style="rounded=0;whiteSpace=wrap;html=1;" vertex="1" parent="1">
          <mxGeometry x="265" y="560" width="80" height="30" as="geometry" />
        </mxCell>
        <mxCell id="F3MV0ou2FzLWRQstEECt-14" value="*2: https://github.com/ShieldMnt/invisible-watermark" style="text;html=1;align=center;verticalAlign=middle;resizable=0;points=[];autosize=1;strokeColor=none;fillColor=none;" vertex="1" parent="1">
          <mxGeometry x="-4" y="700" width="300" height="30" as="geometry" />
        </mxCell>
        <mxCell id="F3MV0ou2FzLWRQstEECt-16" value="*3: https://huggingface.co/idajikuu/AI-HUMAN-detector/tree/main" style="text;html=1;align=center;verticalAlign=middle;resizable=0;points=[];autosize=1;strokeColor=none;fillColor=none;" vertex="1" parent="1">
          <mxGeometry x="-4" y="740" width="370" height="30" as="geometry" />
        </mxCell>
      </root>
    </mxGraphModel>
  </diagram>
</mxfile>
